<mxfile host="app.diagrams.net" modified="2023-11-26T17:42:09.309Z" agent="Mozilla/5.0 (Windows NT 10.0; Win64; x64) AppleWebKit/537.36 (KHTML, like Gecko) Chrome/119.0.0.0 Safari/537.36 Edg/119.0.0.0" etag="n6jjj_kvnaasuld_7akK" version="22.1.4" type="github">
  <diagram name="Page-1" id="f8dC5a0PNH-ASULJE-6G">
    <mxGraphModel dx="1892" dy="569" grid="1" gridSize="10" guides="1" tooltips="1" connect="1" arrows="1" fold="1" page="1" pageScale="1" pageWidth="850" pageHeight="1100" math="0" shadow="0">
      <root>
        <mxCell id="0" />
        <mxCell id="1" parent="0" />
        <mxCell id="g1rYHBP06ud7yKelS93--1" value="&lt;font style=&quot;font-size: 14px;&quot;&gt;&lt;b&gt;Heater 2&amp;amp;3&lt;/b&gt;&lt;/font&gt;" style="rounded=0;whiteSpace=wrap;html=1;shadow=1;" vertex="1" parent="1">
          <mxGeometry x="25" y="160" width="120" height="60" as="geometry" />
        </mxCell>
        <mxCell id="g1rYHBP06ud7yKelS93--2" value="&lt;b&gt;&lt;font style=&quot;font-size: 14px;&quot;&gt;Gas boot 2&lt;/font&gt;&lt;/b&gt;" style="rounded=0;whiteSpace=wrap;html=1;shadow=1;" vertex="1" parent="1">
          <mxGeometry x="195" y="160" width="120" height="60" as="geometry" />
        </mxCell>
        <mxCell id="g1rYHBP06ud7yKelS93--3" value="&lt;b&gt;&lt;font style=&quot;font-size: 14px;&quot;&gt;Oil Storage Tank 1&lt;/font&gt;&lt;/b&gt;" style="rounded=0;whiteSpace=wrap;html=1;shadow=1;" vertex="1" parent="1">
          <mxGeometry x="365" y="160" width="120" height="60" as="geometry" />
        </mxCell>
        <mxCell id="g1rYHBP06ud7yKelS93--6" value="" style="endArrow=classic;html=1;rounded=0;exitX=1;exitY=0.5;exitDx=0;exitDy=0;entryX=0;entryY=0.5;entryDx=0;entryDy=0;shadow=1;" edge="1" parent="1" source="g1rYHBP06ud7yKelS93--1" target="g1rYHBP06ud7yKelS93--2">
          <mxGeometry width="50" height="50" relative="1" as="geometry">
            <mxPoint x="305" y="320" as="sourcePoint" />
            <mxPoint x="355" y="270" as="targetPoint" />
          </mxGeometry>
        </mxCell>
        <mxCell id="g1rYHBP06ud7yKelS93--8" value="" style="endArrow=classic;html=1;rounded=0;exitX=1;exitY=0.5;exitDx=0;exitDy=0;entryX=0;entryY=0.5;entryDx=0;entryDy=0;shadow=1;" edge="1" parent="1">
          <mxGeometry width="50" height="50" relative="1" as="geometry">
            <mxPoint x="315" y="189.5" as="sourcePoint" />
            <mxPoint x="365" y="189.5" as="targetPoint" />
          </mxGeometry>
        </mxCell>
        <mxCell id="g1rYHBP06ud7yKelS93--11" value="" style="shape=flexArrow;endArrow=classic;html=1;rounded=0;entryX=0.018;entryY=0.62;entryDx=0;entryDy=0;entryPerimeter=0;" edge="1" parent="1" target="g1rYHBP06ud7yKelS93--1">
          <mxGeometry width="50" height="50" relative="1" as="geometry">
            <mxPoint x="-10" y="197" as="sourcePoint" />
            <mxPoint x="330" y="270" as="targetPoint" />
          </mxGeometry>
        </mxCell>
        <mxCell id="g1rYHBP06ud7yKelS93--12" value="&lt;font style=&quot;font-size: 18px;&quot;&gt;&lt;b&gt;Baobab Manifold&lt;/b&gt;&lt;/font&gt;" style="whiteSpace=wrap;html=1;aspect=fixed;" vertex="1" parent="1">
          <mxGeometry x="-90" y="150" width="80" height="80" as="geometry" />
        </mxCell>
        <mxCell id="g1rYHBP06ud7yKelS93--13" value="" style="shape=flexArrow;endArrow=classic;html=1;rounded=0;entryX=0;entryY=0.5;entryDx=0;entryDy=0;exitX=1;exitY=0.5;exitDx=0;exitDy=0;" edge="1" parent="1" target="g1rYHBP06ud7yKelS93--14">
          <mxGeometry width="50" height="50" relative="1" as="geometry">
            <mxPoint x="485" y="190" as="sourcePoint" />
            <mxPoint x="637" y="197" as="targetPoint" />
          </mxGeometry>
        </mxCell>
        <mxCell id="g1rYHBP06ud7yKelS93--14" value="&lt;b&gt;&lt;font style=&quot;font-size: 18px;&quot;&gt;Export Pump&lt;/font&gt;&lt;/b&gt;" style="whiteSpace=wrap;html=1;aspect=fixed;" vertex="1" parent="1">
          <mxGeometry x="520" y="150" width="80" height="80" as="geometry" />
        </mxCell>
      </root>
    </mxGraphModel>
  </diagram>
</mxfile>
